/* XPM */
static char * gentoo_linux_xpm[] = {
"60 20 10 1",
" 	c None",
".	c #FF79C6",
"+	c #FF7AC6",
"@	c #FF79C5",
"#	c #FF7AC7",
"$	c #FF78C7",
"%	c #FF78C6",
"&	c #FF79C7",
"*	c #FF7AC5",
"=	c #FF78C5",
"                                                            ",
"                                     .  .+                  ",
"                                     .+                     ",
"                   .                 @@                     ",
"                   .                 #$                     ",
" ...   ...   ...  ...  ...   ...     ..     ...   .  . .  % ",
" . .$  . .@  . +&  .  .@ .  .* .     *@  .  . ..  @  .  & . ",
" . +%  % ..  % .+  .  +  .  .& .     &#  .  .  .  .  .  . . ",
" . &%  . =.  . ..  .  %  .  .  .     &# ..  .  .  .  .  %.. ",
"++ &&  . ..  . &.  .  %  .  .  .     *@ @.  .  &  .  .  ..  ",
"*+ *.  ...   . $.  .  .  .  .  .     .. ..  .  .  .  .  ..  ",
"+. &#  .     .  @  .  %  .  .  .     #$ &&  .  .  .  .  ..  ",
"*. ..  . %.  .  &  .  .  .  .$ .     @@ $.  %  &  .  @  . . ",
" . .&  . .+  .  @  .  .  .  .+ .     .+  &  .  .  .  .  # . ",
" ...%  . .   +  .  .$ =.&.  @.+.     +   .  .  .  ...@ =  * ",
"   %.   #           %  %.    .@                    #        ",
"   &@                                                       ",
" + %+                                                       ",
" ...                                                        ",
"                                                            "};
