/* XPM */
static char *result[] = {
/* columns rows colors chars-per-pixel */
"21 20 54 1 ",
"  c #43475B",
". c #474D64",
"X c #4E4A60",
"o c #484E67",
"O c #544D64",
"+ c #49506A",
"@ c #4B526E",
"# c #5C536D",
"$ c #4C5471",
"% c #4E5775",
"& c #4E5776",
"* c #4F5877",
"= c #5B5873",
"- c #5E5A76",
"; c #515B7D",
": c #60506A",
"> c #65526C",
", c #69536E",
"< c #6E5571",
"1 c #7C5978",
"2 c #815B7B",
"3 c #835C7C",
"4 c #8A5E7F",
"5 c #83866F",
"6 c #B5B67E",
"7 c #535D80",
"8 c #545F83",
"9 c #58648C",
"0 c #58658E",
"q c #5C6B97",
"w c #6B6483",
"e c #6070A0",
"r c #8C5F80",
"t c #8E5F81",
"y c #996387",
"u c #9E6489",
"i c #9C769F",
"p c #A3668C",
"a c #A5668D",
"s c #AC6991",
"d c #B96D97",
"f c #A4739D",
"g c #C3709C",
"h c #CE74A2",
"j c #D977A7",
"k c #E37BAD",
"l c #EE7EB2",
"z c #AE8589",
"x c #B9AC84",
"c c #9985B1",
"v c #BC80AF",
"b c #AA8DBD",
"n c #B789BA",
"m c None",
/* pixels */
"mmmmmmmmmmmmmmmmmmmmm",
"mmmm mm mmmmmmmmmmmmm",
"mmmm5mm6mmmmmmmmmmmmm",
"m<11zuyx:pd1mmmmmmmmm",
"#vnfllljibc=mmmmmmmmm",
"mw-Olldd>mmmmmmmmmmmm",
"mmmmhtkk4mmmmmmmmmmmm",
"mmmmdhllam mmmmmmmmmm",
"mmmmylllglllgga<m mmm",
"mmmmmh< <llllllk:m mm",
"mmmmm X3hlllllll1mm m",
"mmmmmmslllllllllmmm m",
"mmmmmm,llllllllrmmm21",
"mmmmmmm2dlljgu>mmmm1,",
"mmmmmmmm   mm  mmmmmm",
"mmmmmmm+.m m;7ommmmmm",
"mmmmmm$e&m m@+q9mmmmm",
"mmmmmmm m;%mmm*mmmmmm",
"mmmmmmmmme0mmmmmmmmmm",
"mmmmmmmmo8.mmmmmmmmmm"
};
